<mxfile host="app.diagrams.net" agent="Mozilla/5.0 (Windows NT 10.0; Win64; x64) AppleWebKit/537.36 (KHTML, like Gecko) Chrome/140.0.0.0 Safari/537.36 Edg/140.0.0.0" version="28.2.5">
  <diagram name="第 1 页" id="UIN3GO888B8rErfqDr5A">
    <mxGraphModel dx="740" dy="491" grid="1" gridSize="10" guides="1" tooltips="1" connect="1" arrows="1" fold="1" page="1" pageScale="1" pageWidth="827" pageHeight="1169" math="0" shadow="0">
      <root>
        <mxCell id="0" />
        <mxCell id="1" parent="0" />
        <mxCell id="mdJHNkCio0da5D6LIcqN-1" value="&lt;font style=&quot;color: rgb(172, 59, 81);&quot;&gt;Derived&lt;/font&gt;&lt;font style=&quot;color: rgb(154, 110, 58);&quot;&gt;*&lt;/font&gt;" style="text;html=1;align=left;verticalAlign=middle;whiteSpace=wrap;rounded=0;fontFamily=Fira Code;fontSource=https%3A%2F%2Ffonts.googleapis.com%2Fcss%3Ffamily%3DFira%2BCode;fontSize=14;" parent="1" vertex="1">
          <mxGeometry x="160" y="160" width="130" height="30" as="geometry" />
        </mxCell>
        <mxCell id="mdJHNkCio0da5D6LIcqN-2" value="" style="rounded=1;whiteSpace=wrap;html=1;strokeColor=#A9A9A9;arcSize=7;fillColor=#F2F2F2;" parent="1" vertex="1">
          <mxGeometry x="160" y="190" width="78" height="30" as="geometry" />
        </mxCell>
        <mxCell id="mdJHNkCio0da5D6LIcqN-3" value="ptr &lt;font style=&quot;font-size: 8px; color: rgb(41, 41, 41);&quot;&gt;2/4/8&lt;/font&gt;" style="rounded=0;whiteSpace=wrap;html=1;strokeColor=none;fillColor=#87CEFA;fontFamily=Open Sans;fontSource=https%3A%2F%2Ffonts.googleapis.com%2Fcss%3Ffamily%3DOpen%2BSans;" parent="1" vertex="1">
          <mxGeometry x="164" y="194" width="70" height="22" as="geometry" />
        </mxCell>
        <mxCell id="mdJHNkCio0da5D6LIcqN-6" value="" style="rounded=1;whiteSpace=wrap;html=1;strokeColor=#A9A9A9;arcSize=7;fillColor=#F2F2F2;dashed=1;" parent="1" vertex="1">
          <mxGeometry x="159" y="230" width="81" height="114" as="geometry" />
        </mxCell>
        <mxCell id="mdJHNkCio0da5D6LIcqN-7" value="vptr&amp;nbsp;&lt;font style=&quot;font-size: 8px; color: rgb(41, 41, 41);&quot;&gt;2/4/8&lt;/font&gt;" style="rounded=0;whiteSpace=wrap;html=1;strokeColor=default;fillColor=#FA8072;fontFamily=Open Sans;fontSource=https%3A%2F%2Ffonts.googleapis.com%2Fcss%3Ffamily%3DOpen%2BSans;strokeWidth=0.5;" parent="1" vertex="1">
          <mxGeometry x="164" y="234" width="71" height="26" as="geometry" />
        </mxCell>
        <mxCell id="mdJHNkCio0da5D6LIcqN-11" value="" style="rounded=1;whiteSpace=wrap;html=1;strokeColor=#d6b656;arcSize=3;fillColor=#fff2cc;dashed=1;" parent="1" vertex="1">
          <mxGeometry x="280" y="202" width="180" height="153" as="geometry" />
        </mxCell>
        <mxCell id="mdJHNkCio0da5D6LIcqN-13" value="" style="endArrow=none;html=1;rounded=0;" parent="1" edge="1">
          <mxGeometry width="50" height="50" relative="1" as="geometry">
            <mxPoint x="198.66" y="230" as="sourcePoint" />
            <mxPoint x="198.66" y="220" as="targetPoint" />
          </mxGeometry>
        </mxCell>
        <mxCell id="mdJHNkCio0da5D6LIcqN-15" value="(static vtable)" style="text;whiteSpace=wrap;html=1;fontFamily=Open Sans;fontSource=https%3A%2F%2Ffonts.googleapis.com%2Fcss%3Ffamily%3DOpen%2BSans;fontColor=#292929;fontSize=9;align=left;labelPosition=center;verticalLabelPosition=middle;verticalAlign=middle;" parent="1" vertex="1">
          <mxGeometry x="283" y="202" width="70" height="20" as="geometry" />
        </mxCell>
        <mxCell id="mdJHNkCio0da5D6LIcqN-16" value="&lt;font style=&quot;color: rgb(154, 110, 58);&quot;&gt;&amp;amp;&lt;/font&gt;&lt;font style=&quot;color: rgb(0, 119, 170);&quot;&gt;typeid&lt;/font&gt;&lt;font color=&quot;#9a6e3a&quot;&gt;(&lt;/font&gt;&lt;font style=&quot;color: rgb(172, 59, 81);&quot;&gt;Derived&lt;/font&gt;&lt;font color=&quot;#9a6e3a&quot;&gt;)&lt;font style=&quot;font-size: 9px;&quot;&gt;&amp;nbsp;&lt;/font&gt;&lt;/font&gt;&lt;font style=&quot;color: rgb(169, 169, 169); font-size: 9px;&quot;&gt;(RTTI)&lt;/font&gt;" style="rounded=0;whiteSpace=wrap;html=1;strokeColor=#FFFFFF;fillColor=none;strokeWidth=2;fontFamily=Fira Code;fontSource=https%3A%2F%2Ffonts.googleapis.com%2Fcss%3Ffamily%3DFira%2BCode;" parent="1" vertex="1">
          <mxGeometry x="290" y="222" width="160" height="25" as="geometry" />
        </mxCell>
        <mxCell id="mdJHNkCio0da5D6LIcqN-17" value="&lt;font style=&quot;color: rgb(154, 110, 58);&quot;&gt;&amp;amp;&lt;/font&gt;&lt;font style=&quot;color: rgb(172, 59, 81);&quot;&gt;Derived&lt;/font&gt;::~&lt;font style=&quot;color: rgb(172, 59, 81);&quot;&gt;Derived&lt;/font&gt;" style="rounded=0;whiteSpace=wrap;html=1;strokeColor=#FFFFFF;fillColor=none;strokeWidth=2;fontFamily=Fira Code;fontSource=https%3A%2F%2Ffonts.googleapis.com%2Fcss%3Ffamily%3DFira%2BCode;" parent="1" vertex="1">
          <mxGeometry x="290" y="247" width="160" height="25" as="geometry" />
        </mxCell>
        <mxCell id="mdJHNkCio0da5D6LIcqN-18" value="&lt;font style=&quot;color: rgb(154, 110, 58);&quot;&gt;&amp;amp;&lt;/font&gt;&lt;font style=&quot;color: rgb(172, 59, 81);&quot;&gt;Base&lt;/font&gt;::f" style="rounded=0;whiteSpace=wrap;html=1;strokeColor=#FFFFFF;fillColor=none;strokeWidth=2;fontFamily=Fira Code;fontSource=https%3A%2F%2Ffonts.googleapis.com%2Fcss%3Ffamily%3DFira%2BCode;" parent="1" vertex="1">
          <mxGeometry x="290" y="272" width="160" height="25" as="geometry" />
        </mxCell>
        <mxCell id="mdJHNkCio0da5D6LIcqN-19" value="&lt;font style=&quot;color: rgb(154, 110, 58);&quot;&gt;&amp;amp;&lt;/font&gt;&lt;font style=&quot;color: rgb(172, 59, 81);&quot;&gt;Derived&lt;/font&gt;::g" style="rounded=0;whiteSpace=wrap;html=1;strokeColor=#FFFFFF;fillColor=none;strokeWidth=2;fontFamily=Fira Code;fontSource=https%3A%2F%2Ffonts.googleapis.com%2Fcss%3Ffamily%3DFira%2BCode;" parent="1" vertex="1">
          <mxGeometry x="290" y="297" width="160" height="25" as="geometry" />
        </mxCell>
        <mxCell id="mdJHNkCio0da5D6LIcqN-20" value="&lt;font style=&quot;color: rgb(41, 41, 41);&quot;&gt;...&lt;/font&gt;" style="rounded=0;whiteSpace=wrap;html=1;strokeColor=#FFFFFF;fillColor=none;strokeWidth=2;fontFamily=Fira Code;fontSource=https%3A%2F%2Ffonts.googleapis.com%2Fcss%3Ffamily%3DFira%2BCode;" parent="1" vertex="1">
          <mxGeometry x="290" y="322" width="160" height="25" as="geometry" />
        </mxCell>
        <mxCell id="RdDvWVPnqO7iUFs9uO31-1" value="field_0" style="rounded=0;whiteSpace=wrap;html=1;strokeColor=default;fillColor=#FA8072;fontFamily=Open Sans;fontSource=https%3A%2F%2Ffonts.googleapis.com%2Fcss%3Ffamily%3DOpen%2BSans;strokeWidth=0.5;" vertex="1" parent="1">
          <mxGeometry x="164" y="260" width="71" height="26" as="geometry" />
        </mxCell>
        <mxCell id="RdDvWVPnqO7iUFs9uO31-2" value="field_1" style="rounded=0;whiteSpace=wrap;html=1;strokeColor=default;fillColor=#FA8072;fontFamily=Open Sans;fontSource=https%3A%2F%2Ffonts.googleapis.com%2Fcss%3Ffamily%3DOpen%2BSans;strokeWidth=0.5;" vertex="1" parent="1">
          <mxGeometry x="164" y="286" width="71" height="26" as="geometry" />
        </mxCell>
        <mxCell id="RdDvWVPnqO7iUFs9uO31-3" value="..." style="rounded=0;whiteSpace=wrap;html=1;strokeColor=default;fillColor=#FA8072;fontFamily=Open Sans;fontSource=https%3A%2F%2Ffonts.googleapis.com%2Fcss%3Ffamily%3DOpen%2BSans;strokeWidth=0.5;" vertex="1" parent="1">
          <mxGeometry x="164" y="312" width="71" height="26" as="geometry" />
        </mxCell>
        <mxCell id="RdDvWVPnqO7iUFs9uO31-5" value="" style="endArrow=open;html=1;rounded=0;endFill=0;" edge="1" parent="1">
          <mxGeometry width="50" height="50" relative="1" as="geometry">
            <mxPoint x="240" y="247" as="sourcePoint" />
            <mxPoint x="290" y="247" as="targetPoint" />
          </mxGeometry>
        </mxCell>
      </root>
    </mxGraphModel>
  </diagram>
</mxfile>
